<?xml version="1.0" encoding="UTF-8" standalone="no"?>
<!-- Generator: Adobe Illustrator 16.0.0, SVG Export Plug-In . SVG Version: 6.00 Build 0)  -->

<svg
   xmlns:dc="http://purl.org/dc/elements/1.1/"
   xmlns:cc="http://creativecommons.org/ns#"
   xmlns:rdf="http://www.w3.org/1999/02/22-rdf-syntax-ns#"
   xmlns:svg="http://www.w3.org/2000/svg"
   xmlns="http://www.w3.org/2000/svg"
   xmlns:sodipodi="http://sodipodi.sourceforge.net/DTD/sodipodi-0.dtd"
   xmlns:inkscape="http://www.inkscape.org/namespaces/inkscape"
   version="1.1"
   id="Capa_1"
   x="0px"
   y="0px"
   width="475.082px"
   height="475.081px"
   viewBox="0 0 475.082 475.081"
   style="enable-background:new 0 0 475.082 475.081;"
   xml:space="preserve"
   sodipodi:docname="volume-up-interface-symbol.svg"
   inkscape:version="0.92.2 (5c3e80d, 2017-08-06)"
   inkscape:export-filename="D:\obs\obs-studio\plugins\LogiLCDStudio\speakers.png"
   inkscape:export-xdpi="3.2331262"
   inkscape:export-ydpi="3.2331262"><metadata
     id="metadata49"><rdf:RDF><cc:Work
         rdf:about=""><dc:format>image/svg+xml</dc:format><dc:type
           rdf:resource="http://purl.org/dc/dcmitype/StillImage" /></cc:Work></rdf:RDF></metadata><defs
     id="defs47" /><sodipodi:namedview
     pagecolor="#ffffff"
     bordercolor="#666666"
     borderopacity="1"
     objecttolerance="10"
     gridtolerance="10"
     guidetolerance="10"
     inkscape:pageopacity="0"
     inkscape:pageshadow="2"
     inkscape:window-width="1416"
     inkscape:window-height="829"
     id="namedview45"
     showgrid="false"
     inkscape:zoom="0.9935148"
     inkscape:cx="253.43481"
     inkscape:cy="218.4135"
     inkscape:window-x="0"
     inkscape:window-y="0"
     inkscape:window-maximized="0"
     inkscape:current-layer="g12" /><g
     id="g12"><path
       inkscape:connector-curvature="0"
       id="path2"
       d="m 216.76792,50.196159 c -5.30925,0 -9.90682,1.945081 -13.79055,5.824511 L 100.92069,158.07843 H 20.624871 c -5.315699,0 -9.912189,1.94508 -13.7937651,5.82236 -3.8826503,3.88158 -5.824512,8.48129 -5.824512,13.7927 v 117.68174 c 0,5.31248 1.9418617,9.91112 5.824512,13.79163 3.8847961,3.88264 8.4823601,5.82557 13.7937651,5.82557 h 80.291519 l 102.05669,102.06098 c 3.88265,3.87515 8.48021,5.82237 13.79054,5.82237 5.3157,0 9.9122,-1.94615 13.79378,-5.82237 3.88264,-3.87942 5.8245,-8.48128 5.8245,-13.79054 V 69.814435 c 0,-5.311404 -1.94186,-9.912189 -5.82021,-13.793765 -3.8848,-3.87943 -8.47807,-5.824511 -13.79377,-5.824511 z"
       style="stroke-width:1.07344484" /><path
       inkscape:connector-curvature="0"
       id="path6"
       d="m 360.61703,315.17442 c 16.18,-24.646 24.273,-51.531 24.273,-80.654 0,-29.124 -8.094,-56.005 -24.273,-80.666 -16.177,-24.645 -37.6,-42.583 -64.241,-53.815 -2.471,-0.950003 -4.948,-1.427003 -7.416,-1.427003 -4.948,0 -9.236,1.809003 -12.854,5.426003 -3.613,3.616 -5.424,7.898 -5.424,12.847 0,7.424 3.713,13.039 11.139,16.849 10.657,5.518 17.888,9.705 21.693,12.559 14.089,10.28 25.077,23.173 32.976,38.686 7.898,15.514 11.848,32.026 11.848,49.537 0,17.512 -3.949,34.023 -11.848,49.536 -7.898,15.516 -18.894,28.407 -32.976,38.684 -3.806,2.857 -11.036,7.043 -21.693,12.563 -7.426,3.809 -11.139,9.424 -11.139,16.847 0,4.948 1.811,9.236 5.424,12.847 3.617,3.621 7.991,5.432 13.131,5.432 2.286,0 4.668,-0.483 7.139,-1.428 26.641,-11.234 48.064,-29.173 64.241,-53.823 z" /><path
       inkscape:connector-curvature="0"
       id="path8"
       d="M 438.824,116.92 C 414.653,80.282 382.481,53.298 342.319,35.977 c -2.471,-0.95 -4.948,-1.425 -7.416,-1.425 -4.948,0 -9.236,1.811 -12.847,5.424 -3.621,3.615 -5.432,7.902 -5.432,12.85 0,6.851 3.714,12.469 11.14,16.846 1.335,0.756 3.467,1.755 6.42,2.996 2.95,1.232 5.089,2.231 6.427,2.993 8.754,4.755 16.56,9.611 23.418,14.56 23.407,17.318 41.682,38.922 54.816,64.809 13.134,25.885 19.697,53.388 19.697,82.512 0,29.129 -6.563,56.626 -19.697,82.512 -13.131,25.889 -31.409,47.496 -54.816,64.809 -6.858,4.948 -14.664,9.801 -23.418,14.562 -1.338,0.756 -3.477,1.752 -6.427,2.99 -2.953,1.232 -5.085,2.231 -6.42,2.998 -7.426,4.374 -11.14,9.993 -11.14,16.844 0,4.949 1.811,9.233 5.432,12.848 3.61,3.617 7.898,5.427 12.847,5.427 2.468,0 4.945,-0.476 7.416,-1.431 40.162,-17.315 72.334,-44.3 96.505,-80.94 24.174,-36.638 36.258,-76.849 36.258,-120.625 0,-43.776 -12.081,-83.982 -36.258,-120.616 z" /></g><g
     id="g14" /><g
     id="g16" /><g
     id="g18" /><g
     id="g20" /><g
     id="g22" /><g
     id="g24" /><g
     id="g26" /><g
     id="g28" /><g
     id="g30" /><g
     id="g32" /><g
     id="g34" /><g
     id="g36" /><g
     id="g38" /><g
     id="g40" /><g
     id="g42" /></svg>